<?xml version="1.0" encoding="utf-8"?>
<!-- Generator: Adobe Illustrator 27.6.1, SVG Export Plug-In . SVG Version: 6.00 Build 0)  -->
<svg version="1.1" xmlns="http://www.w3.org/2000/svg" xmlns:xlink="http://www.w3.org/1999/xlink" x="0px" y="0px"
	 viewBox="0 0 577.5 361" style="enable-background:new 0 0 577.5 361;" xml:space="preserve">
<style type="text/css">
	.st0{fill:none;stroke:#ED1C24;stroke-width:3;stroke-miterlimit:10;}
	.st1{fill:#41B8EA;stroke:#000000;stroke-miterlimit:10;}
</style>
<g id="Layer_1">
	<polyline class="st0" points="133.8,169.2 105,151.2 80.3,134.8 133.8,205.3 186.4,236.3 207.8,295.7 239.5,312.6 351.3,312.6 	"/>
	<line class="st0" x1="139.1" y1="151.2" x2="80.3" y2="134.8"/>
	<polyline class="st0" points="83.7,231.8 101.6,226.4 128.4,233.7 133.8,205.3 	"/>
	<polyline class="st0" points="158.2,342.9 189.8,330.3 173.8,298.1 207.8,295.7 	"/>
</g>
<g id="Layer_2">
	<path class="st1" d="M80.9,138.2c-1.9,0-3.4-1.5-3.4-3.4s1.5-3.4,3.4-3.4s3.4,1.5,3.4,3.4S82.7,138.2,80.9,138.2z M80.9,129.5
		c-3,0-5.3,2.4-5.3,5.3c0,3,2.4,5.3,5.3,5.3c3,0,5.3-2.4,5.3-5.3C86.2,131.9,83.8,129.5,80.9,129.5z"/>
	<path class="st1" d="M105.2,145.9c-3,0-5.3,2.4-5.3,5.3c0,3,2.4,5.3,5.3,5.3c3,0,5.3-2.4,5.3-5.3
		C110.6,148.3,108.2,145.9,105.2,145.9z M105.2,154.6c-1.9,0-3.4-1.5-3.4-3.4c0-1.9,1.5-3.4,3.4-3.4c1.9,0,3.4,1.5,3.4,3.4
		C108.6,153.1,107.1,154.6,105.2,154.6z"/>
	<path class="st1" d="M139.1,145.9c-3,0-5.3,2.4-5.3,5.3c0,3,2.4,5.3,5.3,5.3c3,0,5.3-2.4,5.3-5.3
		C144.5,148.3,142.1,145.9,139.1,145.9z M139.1,154.6c-1.9,0-3.4-1.5-3.4-3.4c0-1.9,1.5-3.4,3.4-3.4s3.4,1.5,3.4,3.4
		C142.5,153.1,141,154.6,139.1,154.6z"/>
	<path class="st1" d="M133.8,163.8c-3,0-5.3,2.4-5.3,5.3c0,3,2.4,5.3,5.3,5.3c3,0,5.3-2.4,5.3-5.3
		C139.1,166.2,136.7,163.8,133.8,163.8z M133.8,172.6c-1.9,0-3.4-1.5-3.4-3.4c0-1.9,1.5-3.4,3.4-3.4s3.4,1.5,3.4,3.4
		C137.2,171.1,135.7,172.6,133.8,172.6z"/>
	<path class="st1" d="M101.2,221.1c-2.9,0.2-5.2,2.8-5,5.7c0.2,2.9,2.8,5.2,5.7,5c2.9-0.2,5.2-2.8,5-5.7
		C106.7,223.1,104.2,220.9,101.2,221.1z M101.8,229.8c-1.9,0.1-3.5-1.3-3.7-3.2c-0.1-1.9,1.3-3.5,3.2-3.7c1.9-0.1,3.5,1.3,3.7,3.2
		C105.1,228.1,103.7,229.7,101.8,229.8z"/>
	<path class="st1" d="M158.2,337.6c-3,0-5.3,2.4-5.3,5.3c0,3,2.4,5.3,5.3,5.3c3,0,5.3-2.4,5.3-5.3
		C163.5,340,161.1,337.6,158.2,337.6z M158.2,346.4c-1.9,0-3.4-1.5-3.4-3.4c0-1.9,1.5-3.4,3.4-3.4s3.4,1.5,3.4,3.4
		C161.6,344.8,160,346.4,158.2,346.4z"/>
	<path class="st1" d="M189.8,325c-3,0-5.3,2.4-5.3,5.3s2.4,5.3,5.3,5.3c3,0,5.3-2.4,5.3-5.3S192.8,325,189.8,325z M189.8,333.8
		c-1.9,0-3.4-1.5-3.4-3.4s1.5-3.4,3.4-3.4s3.4,1.5,3.4,3.4S191.7,333.8,189.8,333.8z"/>
	<path class="st1" d="M129.6,238.1c2.9-0.6,4.7-3.5,4.1-6.4c-0.6-2.9-3.5-4.7-6.4-4.1c-2.9,0.6-4.7,3.5-4.1,6.4
		C123.8,236.9,126.7,238.7,129.6,238.1z M127.7,229.5c1.8-0.4,3.7,0.8,4.1,2.6c0.4,1.8-0.8,3.7-2.6,4.1s-3.7-0.8-4.1-2.6
		C124.7,231.7,125.8,229.9,127.7,229.5z"/>
	<path class="st1" d="M134.9,210.6c2.9-0.6,4.7-3.5,4.1-6.4c-0.6-2.9-3.5-4.7-6.4-4.1c-2.9,0.6-4.7,3.5-4.1,6.4
		C129.2,209.4,132,211.2,134.9,210.6z M133,202c1.8-0.4,3.7,0.8,4.1,2.6c0.4,1.8-0.8,3.7-2.6,4.1s-3.7-0.8-4.1-2.6
		C130,204.2,131.2,202.4,133,202z"/>
	<path class="st1" d="M161.6,325c-3,0-5.3,2.4-5.3,5.3c0,3,2.4,5.3,5.3,5.3c3,0,5.3-2.4,5.3-5.3C166.9,327.4,164.5,325,161.6,325z
		 M161.6,333.8c-1.9,0-3.4-1.5-3.4-3.4c0-1.9,1.5-3.4,3.4-3.4s3.4,1.5,3.4,3.4C165,332.2,163.5,333.8,161.6,333.8z"/>
	<path class="st1" d="M173.8,292.7c-3,0-5.3,2.4-5.3,5.3s2.4,5.3,5.3,5.3c3,0,5.3-2.4,5.3-5.3S176.7,292.7,173.8,292.7z
		 M173.8,301.5c-1.9,0-3.4-1.5-3.4-3.4s1.5-3.4,3.4-3.4s3.4,1.5,3.4,3.4S175.7,301.5,173.8,301.5z"/>
	<path class="st1" d="M83.7,227.5c-3,0-5.3,2.4-5.3,5.3c0,3,2.4,5.3,5.3,5.3c3,0,5.3-2.4,5.3-5.3C89.1,229.9,86.7,227.5,83.7,227.5z
		 M83.7,236.3c-1.9,0-3.4-1.5-3.4-3.4c0-1.9,1.5-3.4,3.4-3.4c1.9,0,3.4,1.5,3.4,3.4C87.1,234.7,85.6,236.3,83.7,236.3z"/>
	<path class="st1" d="M351.3,307.2c-3,0-5.3,2.4-5.3,5.3c0,3,2.4,5.3,5.3,5.3c3,0,5.3-2.4,5.3-5.3
		C356.7,309.6,354.3,307.2,351.3,307.2z M351.3,316c-1.9,0-3.4-1.5-3.4-3.4c0-1.9,1.5-3.4,3.4-3.4s3.4,1.5,3.4,3.4
		C354.7,314.5,353.2,316,351.3,316z"/>
	<path class="st1" d="M207.8,290.3c-3,0-5.3,2.4-5.3,5.3s2.4,5.3,5.3,5.3c3,0,5.3-2.4,5.3-5.3S210.8,290.3,207.8,290.3z
		 M207.8,299.1c-1.9,0-3.4-1.5-3.4-3.4s1.5-3.4,3.4-3.4c1.9,0,3.4,1.5,3.4,3.4S209.7,299.1,207.8,299.1z"/>
	<path class="st1" d="M239.5,307.2c-3,0-5.3,2.4-5.3,5.3c0,3,2.4,5.3,5.3,5.3c3,0,5.3-2.4,5.3-5.3
		C244.8,309.6,242.4,307.2,239.5,307.2z M239.5,316c-1.9,0-3.4-1.5-3.4-3.4c0-1.9,1.5-3.4,3.4-3.4s3.4,1.5,3.4,3.4
		C242.9,314.5,241.4,316,239.5,316z"/>
	<path class="st1" d="M186.4,230.9c-3,0-5.3,2.4-5.3,5.3c0,3,2.4,5.3,5.3,5.3c3,0,5.3-2.4,5.3-5.3
		C191.7,233.3,189.3,230.9,186.4,230.9z M186.4,239.7c-1.9,0-3.4-1.5-3.4-3.4c0-1.9,1.5-3.4,3.4-3.4s3.4,1.5,3.4,3.4
		C189.8,238.2,188.3,239.7,186.4,239.7z"/>
</g>
</svg>
